<svg
  width="30"
  height="30"
  viewBox="0 0 30 30"
  fill="none"
  xmlns="http://www.w3.org/2000/svg"
>
  <path
    d="M22.7372 21.4753L19.7159 18.463C20.6907 17.2211 21.2196 15.6876 21.2176 14.1088C21.2176 12.7028 20.8007 11.3284 20.0196 10.1594C19.2385 8.99033 18.1282 8.07918 16.8293 7.54113C15.5303 7.00308 14.1009 6.8623 12.722 7.1366C11.343 7.41089 10.0763 8.08794 9.08213 9.08213C8.08794 10.0763 7.41089 11.343 7.1366 12.722C6.8623 14.1009 7.00308 15.5303 7.54113 16.8293C8.07918 18.1282 8.99033 19.2385 10.1594 20.0196C11.3284 20.8007 12.7028 21.2176 14.1088 21.2176C15.6876 21.2196 17.2211 20.6907 18.463 19.7159L21.4753 22.7372C21.5579 22.8204 21.6562 22.8865 21.7645 22.9317C21.8728 22.9768 21.9889 23 22.1062 23C22.2236 23 22.3397 22.9768 22.448 22.9317C22.5563 22.8865 22.6545 22.8204 22.7372 22.7372C22.8204 22.6545 22.8865 22.5563 22.9317 22.448C22.9768 22.3397 23 22.2236 23 22.1062C23 21.9889 22.9768 21.8728 22.9317 21.7645C22.8865 21.6562 22.8204 21.5579 22.7372 21.4753ZM8.77721 14.1088C8.77721 13.0543 9.0899 12.0235 9.67575 11.1467C10.2616 10.27 11.0943 9.58659 12.0685 9.18305C13.0427 8.77952 14.1147 8.67393 15.149 8.87965C16.1832 9.08538 17.1332 9.59316 17.8788 10.3388C18.6245 11.0844 19.1323 12.0344 19.338 13.0687C19.5437 14.1029 19.4381 15.1749 19.0346 16.1491C18.6311 17.1234 17.9477 17.9561 17.0709 18.5419C16.1941 19.1277 15.1633 19.4404 14.1088 19.4404C12.6948 19.4404 11.3387 18.8787 10.3388 17.8788C9.33893 16.879 8.77721 15.5229 8.77721 14.1088Z"
    fill="#8E8E8E"
  />
</svg>
 